<?xml version="1.0" standalone="no"?>
<!DOCTYPE svg PUBLIC "-//W3C//DTD SVG 20010904//EN"
 "http://www.w3.org/TR/2001/REC-SVG-20010904/DTD/svg10.dtd">
<svg version="1.0" xmlns="http://www.w3.org/2000/svg"
 width="907.000000pt" height="1117.000000pt" viewBox="0 0 907.000000 1117.000000"
 preserveAspectRatio="xMidYMid meet">
<metadata>
Created by potrace 1.16, written by Peter Selinger 2001-2019
</metadata>
<g transform="translate(0.000000,1117.000000) scale(0.100000,-0.100000)"
fill="#000000" stroke="none">
<path d="M2035 10919 c-29 -28 -59 -40 -137 -53 -21 -4 -44 -13 -52 -22 -8 -8
-29 -17 -46 -20 -17 -4 -39 -17 -49 -30 -10 -13 -23 -24 -29 -24 -16 0 -22
-27 -9 -38 7 -6 48 -10 93 -10 84 0 126 -13 172 -55 32 -29 27 -56 -18 -102
-21 -22 -39 -46 -40 -52 0 -7 -5 -13 -12 -13 -23 0 -88 -53 -88 -71 0 -11 -6
-19 -12 -19 -16 0 -62 -66 -54 -78 23 -38 24 -147 2 -191 l-16 -30 -35 34
c-29 28 -34 39 -29 60 4 18 15 28 34 32 37 7 29 39 -12 48 -16 4 -32 13 -35
21 -3 9 -20 14 -44 14 -35 0 -46 -7 -107 -67 -65 -65 -87 -100 -73 -120 3 -5
27 -19 54 -31 26 -12 47 -29 47 -37 0 -8 7 -15 15 -15 11 0 15 -11 15 -39 0
-24 7 -46 17 -56 14 -15 15 -22 4 -51 -7 -20 -10 -51 -6 -72 6 -35 3 -40 -43
-80 -49 -41 -50 -44 -57 -111 -6 -56 -10 -70 -26 -74 -13 -3 -19 -14 -19 -31
0 -14 -5 -26 -10 -26 -6 0 -33 -22 -60 -50 l-50 -49 0 -79 c0 -79 0 -80 -35
-111 -36 -31 -55 -39 -55 -22 0 5 -11 12 -25 15 -25 6 -65 69 -65 101 0 8 -4
15 -10 15 -5 0 -10 7 -10 16 0 8 -12 31 -26 50 -14 18 -24 40 -21 48 3 8 -1
17 -9 20 -8 3 -14 12 -14 20 0 8 -13 26 -30 39 -28 24 -30 30 -30 97 0 57 -4
78 -21 101 -27 39 -71 60 -132 65 -40 2 -57 9 -84 35 -19 20 -33 27 -33 19 0
-10 -3 -11 -11 -3 -7 7 -8 19 -4 30 5 10 9 23 9 28 1 15 77 18 142 6 47 -9 67
-7 127 9 78 22 142 26 152 10 4 -6 10 -8 15 -5 16 10 18 -37 3 -82 -14 -42
-14 -46 1 -55 9 -5 16 -20 16 -33 0 -29 23 -44 56 -37 13 2 24 5 25 6 7 15 23
179 18 189 -5 7 -2 24 4 38 7 13 14 41 16 63 1 21 11 48 22 59 31 34 18 80
-21 73 -21 -3 -113 -38 -125 -47 -29 -21 -206 35 -225 71 -10 20 -67 34 -175
45 -163 16 -280 56 -319 111 -7 8 -31 18 -54 21 -69 9 -166 66 -183 106 -16
37 -32 34 -74 -16 -23 -28 -53 -50 -85 -62 l-50 -19 0 -390 c0 -358 1 -390 17
-402 17 -13 17 -15 1 -28 -17 -12 -18 -44 -18 -410 l0 -396 39 0 c21 0 56 -6
77 -14 43 -15 74 -13 119 8 55 26 195 46 321 46 133 0 166 -8 227 -54 30 -23
43 -26 115 -26 l80 0 57 -46 c32 -26 64 -61 72 -78 8 -17 23 -47 33 -66 11
-19 19 -44 20 -55 0 -11 7 -33 16 -50 18 -33 20 -153 4 -169 -6 -6 -10 -18
-10 -28 0 -19 -29 -22 -41 -4 -4 5 -37 8 -74 7 -64 -1 -69 -3 -111 -44 -24
-23 -44 -47 -44 -53 0 -6 -16 -24 -36 -40 -20 -16 -50 -44 -68 -62 -32 -34
-68 -54 -121 -68 -29 -7 -168 -8 -262 -2 -58 3 -90 -7 -76 -25 6 -6 13 -29 16
-51 5 -32 3 -39 -13 -43 -11 -3 -20 -9 -20 -13 0 -18 110 -24 375 -22 155 2
306 -1 338 -7 65 -11 97 -40 118 -106 7 -22 21 -57 31 -77 24 -50 24 -95 -1
-103 -20 -6 -75 -1 -169 15 -92 16 -182 -3 -263 -55 -60 -39 -69 -49 -69 -74
0 -21 -6 -32 -20 -36 -11 -3 -20 -12 -20 -19 0 -13 41 -36 64 -36 16 0 46 -32
46 -49 0 -12 -48 -12 -149 2 -19 3 -45 1 -57 -4 -15 -5 -35 -4 -56 5 -37 15
-69 14 -166 -5 -44 -8 -108 -10 -194 -5 l-128 6 0 -1105 0 -1105 93 -1 c73 -1
86 -3 62 -10 -16 -5 -58 -7 -93 -4 l-62 7 0 -46 c0 -58 22 -86 67 -86 18 0 33
-4 33 -9 0 -15 -13 -20 -59 -23 l-42 -3 5 -540 c3 -297 5 -560 5 -585 0 -25
-2 -836 -5 -1802 l-4 -1758 944 0 c891 0 945 1 950 18 3 9 12 81 21 159 8 77
17 147 20 155 3 7 14 56 26 108 12 52 25 113 30 135 14 62 47 238 70 370 11
66 24 129 29 140 5 11 23 67 40 125 18 58 42 137 55 175 21 64 39 134 79 315
28 126 104 416 124 470 11 30 25 78 31 105 5 28 23 91 39 140 26 80 42 160 56
275 5 44 60 186 80 209 9 10 27 58 40 107 13 49 32 109 44 134 43 93 82 189
82 200 0 6 8 25 17 43 20 39 73 182 80 219 4 20 0 27 -16 33 -33 10 -46 -8
-75 -98 -26 -84 -63 -152 -81 -149 -5 0 -19 39 -30 86 -19 82 -21 86 -47 86
-18 0 -28 5 -28 15 0 15 24 16 47 2 17 -11 45 35 47 75 1 27 -3 33 -19 32 -17
0 -20 6 -20 40 1 35 4 40 20 37 11 -2 50 -6 87 -8 67 -5 68 -4 79 23 5 16 9
43 7 62 -3 32 12 51 39 52 16 0 27 -38 15 -53 -6 -7 -13 -33 -17 -59 l-7 -48
37 0 c61 0 72 12 85 92 6 40 15 87 21 104 13 42 11 54 -6 54 -8 0 -15 5 -15
12 0 6 -10 2 -22 -9 -40 -37 -123 -35 -140 3 -11 23 -10 28 14 45 15 11 31 38
39 64 7 25 17 45 21 45 4 0 15 -13 24 -29 18 -30 47 -41 110 -41 44 0 52 28
29 107 -11 37 -18 101 -19 178 -3 126 -6 138 -96 390 -32 88 -45 104 -115 136
-35 16 -67 34 -71 40 -5 9 -2 10 12 4 10 -4 33 -10 49 -12 17 -3 47 -19 68
-35 21 -17 40 -28 43 -26 2 3 -1 29 -6 59 -13 63 -22 259 -13 259 10 0 163
-91 222 -132 30 -21 60 -38 68 -38 7 0 31 12 53 26 61 41 233 94 336 104 64 7
105 16 140 35 47 24 53 25 129 15 44 -5 98 -9 120 -8 22 0 49 -4 60 -9 11 -6
37 -13 57 -17 30 -5 39 -3 47 12 5 10 28 27 50 37 33 14 42 24 47 52 4 19 4
36 2 39 -3 3 0 21 7 42 12 32 11 39 -6 61 -23 29 -24 50 -4 57 17 7 22 99 5
109 -5 3 -10 15 -10 25 0 12 -13 26 -31 35 -27 15 -29 18 -14 29 9 6 15 18 13
25 -2 8 11 18 29 25 18 6 33 16 34 21 0 6 7 18 16 27 9 10 12 25 8 36 -3 11
-1 23 5 27 17 10 12 25 -12 35 -13 5 -17 9 -10 9 7 1 10 6 7 12 -4 6 -8 25 -9
42 -1 17 -8 33 -14 35 -17 5 -15 32 3 32 19 0 65 21 65 30 0 4 -10 11 -22 15
-22 7 -22 8 -3 12 11 2 28 21 39 43 11 22 23 40 28 40 5 0 21 12 36 27 14 14
74 58 132 97 58 38 111 75 118 83 7 7 19 16 25 20 23 14 100 113 94 119 -3 4
0 13 8 21 17 17 20 43 5 43 -6 0 -14 -8 -17 -17 -4 -10 -14 -23 -22 -30 -19
-15 -67 -17 -76 -4 -3 6 -22 4 -48 -5 -38 -14 -45 -13 -79 3 -21 10 -38 23
-38 29 0 7 -9 14 -20 17 -11 3 -19 11 -18 18 2 8 -7 15 -19 17 -13 2 -23 7
-23 12 0 5 -10 10 -22 12 -16 2 -23 10 -23 26 0 13 -7 27 -15 32 -26 16 7 59
54 71 23 5 49 12 58 15 34 10 95 133 69 142 -6 2 -11 10 -11 18 0 9 -11 14
-33 14 -40 0 -51 8 -36 27 9 10 6 13 -15 13 -25 0 -26 1 -12 16 21 21 20 44
-1 44 -16 1 -16 2 1 15 27 21 179 21 199 1 8 -8 17 -36 21 -63 3 -26 12 -65
20 -86 15 -44 52 -75 69 -58 6 6 17 11 25 11 17 0 72 57 72 75 0 7 7 18 15 25
8 7 12 16 9 21 -3 5 2 31 10 57 15 43 17 71 16 197 0 33 6 47 30 70 48 46 31
90 -74 198 -26 26 -51 47 -56 47 -4 0 -10 3 -12 8 -6 13 -67 52 -82 52 -8 0
-18 5 -21 10 -16 26 -22 3 -20 -80 2 -82 6 -96 43 -172 23 -46 44 -98 47 -116
5 -29 3 -33 -23 -38 -25 -5 -28 -10 -24 -35 5 -31 1 -34 -26 -20 -9 5 -34 17
-55 26 -21 9 -41 23 -43 30 -3 8 -12 11 -21 8 -11 -5 -14 1 -11 23 2 22 -2 30
-17 32 -11 3 -25 11 -31 20 -9 13 -6 22 17 46 16 17 36 46 45 64 8 18 26 38
40 44 35 16 30 34 -16 52 -53 21 -79 20 -115 -4 -41 -27 -54 -25 -53 8 1 32
-23 82 -64 134 -16 21 -26 42 -23 48 4 6 -3 29 -14 51 -18 35 -21 57 -21 177
0 75 4 142 8 147 4 6 24 23 45 39 l39 28 27 -26 c16 -15 39 -50 52 -79 48
-105 135 -172 234 -180 25 -2 48 -7 51 -10 3 -3 16 -2 27 3 12 5 38 11 58 15
21 3 42 12 48 19 7 8 24 17 39 21 15 4 29 10 32 15 3 4 21 18 40 31 19 13 35
31 34 39 0 8 -2 25 -2 36 -1 13 -11 24 -24 28 -16 4 -19 9 -12 16 7 7 28 4 67
-10 67 -24 124 -26 146 -6 14 13 15 31 7 138 -7 100 -12 128 -30 151 -23 32
-65 57 -94 57 -11 0 -25 6 -31 14 -7 8 -25 18 -41 21 -15 3 -35 14 -44 24 -16
17 -15 21 9 57 32 47 59 63 105 64 38 0 66 23 94 77 18 35 64 69 53 39 -4 -9
-2 -16 3 -16 6 0 10 5 10 11 0 8 4 8 15 -1 12 -10 12 -15 1 -33 -10 -15 -11
-29 -5 -44 10 -27 22 -29 39 -8 21 26 34 17 63 -43 38 -80 51 -203 35 -331
-15 -120 -21 -588 -8 -596 6 -3 10 -19 10 -35 0 -23 7 -32 40 -48 38 -19 40
-19 69 -1 38 23 56 82 42 137 -13 45 -39 84 -52 77 -5 -4 -9 5 -9 19 0 19 10
32 38 50 54 35 62 23 62 -93 l0 -96 34 60 c18 33 39 84 46 113 6 28 16 52 20
52 4 0 11 -21 15 -47 4 -30 22 -71 46 -108 51 -78 54 -93 34 -160 -15 -45 -23
-56 -44 -61 -54 -12 -66 -17 -83 -32 -25 -22 -22 -31 26 -85 36 -40 49 -48 72
-45 25 3 30 9 38 45 8 41 16 47 70 59 37 8 95 -16 111 -45 8 -16 35 -48 60
-72 53 -51 95 -117 95 -151 0 -29 -32 -78 -62 -94 -30 -17 -99 -17 -132 -1
-14 8 -38 26 -52 40 -36 36 -56 34 -90 -10 -16 -21 -38 -46 -49 -55 -29 -25
-102 -48 -150 -48 -57 0 -95 -19 -102 -51 -10 -49 -82 -63 -169 -33 -25 8 -48
13 -51 10 -3 -3 -15 0 -27 6 -32 18 -55 17 -78 -3 -23 -21 -48 -64 -48 -85 0
-8 -15 -24 -34 -36 -46 -30 -78 -81 -87 -136 -4 -26 -15 -74 -23 -107 -9 -33
-16 -77 -16 -97 0 -32 5 -40 30 -53 16 -9 30 -22 30 -30 0 -31 -20 -63 -44
-69 -29 -7 -57 -55 -75 -130 -14 -55 -29 -32 116 -182 33 -33 77 -82 98 -108
34 -41 40 -45 46 -29 4 10 8 26 8 37 1 15 -2 16 -14 6 -21 -17 -35 -3 -35 36
0 30 3 34 28 34 15 0 34 -4 42 -9 10 -7 18 -4 28 10 22 32 58 23 105 -24 46
-47 69 -89 117 -213 28 -71 36 -84 77 -109 30 -19 52 -43 65 -72 11 -24 27
-43 35 -43 12 0 14 -8 10 -34 -5 -34 6 -56 30 -56 17 0 17 25 -1 39 -27 23 -8
46 40 47 24 1 51 7 59 14 8 7 15 9 15 5 0 -4 6 -2 14 4 19 16 82 17 99 2 8 -6
51 -14 94 -18 75 -5 84 -4 146 25 65 31 70 32 259 38 169 6 197 5 225 -9 40
-21 76 -55 93 -87 18 -34 25 -201 11 -275 -9 -53 -16 -65 -58 -102 -34 -31
-61 -45 -100 -53 -61 -13 -115 -38 -108 -50 3 -4 -4 -10 -15 -13 -11 -3 -20
-9 -20 -15 0 -10 59 -66 124 -117 40 -32 167 -189 193 -238 8 -17 12 -40 9
-53 -4 -15 2 -43 14 -72 29 -66 77 -209 86 -257 3 -22 11 -48 16 -58 14 -28
35 -115 42 -177 7 -54 23 -166 31 -205 4 -18 13 -20 102 -23 195 -5 409 -14
438 -18 17 -3 57 -9 90 -14 33 -5 89 -16 125 -25 122 -32 319 -1 344 54 5 11
17 21 28 21 10 0 18 7 18 15 0 8 5 14 11 13 6 -2 14 3 16 10 3 7 1 12 -4 11
-10 -3 -42 9 -63 22 -8 5 -33 18 -55 28 -51 24 -105 75 -105 99 0 10 6 27 14
37 8 12 12 34 9 59 -14 126 -92 183 -198 145 -24 -9 -50 -6 -132 14 -82 20
-110 23 -140 15 -118 -30 -219 -29 -273 4 -20 12 -60 84 -60 108 0 5 -5 19
-12 29 -9 15 -9 23 1 35 8 9 19 16 26 16 7 0 15 8 17 18 7 27 86 40 283 48 94
4 184 8 200 9 17 0 44 -2 60 -5 37 -8 55 -3 55 16 0 8 4 14 10 14 5 0 7 7 4
15 -4 9 -1 30 6 48 65 165 153 297 198 297 9 0 37 25 61 55 83 104 110 121
209 135 48 7 116 20 152 29 l65 17 0 119 c0 121 7 155 30 155 7 0 17 6 23 13
6 7 23 14 37 15 35 3 71 32 67 55 -2 9 -8 17 -12 17 -5 0 -7 13 -4 30 9 43 -3
80 -26 80 -24 0 -34 29 -35 102 0 67 -17 93 -39 62 -14 -18 -15 -18 -22 11
-10 38 -9 33 -18 86 -6 35 -19 57 -53 93 l-45 48 4 64 c5 88 30 114 107 115
70 0 132 12 193 35 44 17 48 17 65 1 11 -9 56 -23 104 -31 76 -14 87 -18 115
-51 19 -21 34 -51 37 -73 3 -20 11 -67 18 -104 10 -50 10 -81 3 -119 -9 -40
-8 -54 3 -64 11 -11 10 -15 -6 -20 -10 -3 -22 -17 -25 -30 -3 -13 -16 -30 -29
-36 -12 -7 -26 -18 -32 -25 -13 -17 -62 -76 -102 -123 -18 -21 -33 -44 -33
-50 0 -6 -6 -11 -14 -11 -19 0 -30 -32 -14 -42 7 -4 29 -18 49 -31 65 -40 94
-61 116 -84 12 -13 28 -23 36 -23 8 0 34 -9 58 -19 24 -11 56 -22 72 -25 l27
-5 0 1295 0 1295 -35 20 c-35 21 -55 46 -55 69 0 8 15 11 45 8 l45 -3 0 768 0
769 -30 -25 c-35 -30 -100 -43 -129 -27 -12 6 -21 15 -21 21 0 6 -4 7 -10 4
-5 -3 -10 2 -10 13 0 40 -21 80 -38 75 -10 -2 -30 1 -45 6 -22 9 -27 16 -25
38 2 19 -2 28 -12 29 -8 1 -20 2 -27 3 -6 0 -9 10 -6 21 3 13 0 20 -8 20 -14
0 -39 43 -39 66 0 7 -6 17 -13 21 -21 13 -55 93 -62 148 -5 43 -2 57 18 94 20
34 26 39 29 25 3 -12 7 -4 12 21 11 60 19 75 24 45 2 -14 9 -31 14 -37 13 -16
38 -17 38 -2 0 24 36 38 96 39 97 0 148 -25 182 -88 18 -36 15 -75 -13 -139
-15 -32 -24 -67 -21 -78 3 -11 26 -42 51 -68 l45 -48 0 585 0 586 -233 0
c-223 0 -233 -1 -245 -21 -19 -29 -5 -133 22 -167 12 -15 26 -36 32 -47 15
-28 60 -48 125 -56 67 -8 137 -38 117 -50 -9 -6 -5 -9 13 -9 14 0 40 -5 58
-11 31 -11 31 -12 25 -60 -5 -37 -3 -52 10 -64 23 -24 20 -44 -13 -75 -46 -45
-72 -58 -141 -74 -55 -13 -74 -13 -127 -2 -67 14 -89 27 -98 56 -3 10 -25 30
-48 43 -73 43 -147 144 -161 218 -4 21 -13 42 -21 49 -8 7 -15 18 -15 24 0 7
-18 30 -40 51 -44 43 -130 164 -130 183 0 9 -285 12 -1194 12 l-1193 0 -7
-102 c-4 -57 -10 -141 -12 -187 -6 -93 -27 -145 -76 -186 -37 -31 -57 -31
-133 0 -71 29 -77 30 -132 9 -52 -20 -62 -47 -40 -107 52 -142 63 -287 25
-340 -12 -16 -26 -26 -34 -23 -8 3 -14 -1 -14 -10 0 -8 -4 -13 -8 -10 -4 3
-26 1 -48 -4 -24 -6 -43 -5 -48 0 -6 6 -43 10 -83 10 -40 0 -73 4 -73 9 0 5
-8 12 -19 16 -10 3 -32 18 -48 34 -31 29 -92 56 -102 45 -3 -4 -1 -9 5 -11 6
-2 20 -10 30 -18 23 -17 13 -30 -13 -16 -45 24 -85 31 -105 17 -28 -20 -165
-9 -260 21 -65 20 -84 22 -117 13 -30 -8 -45 -7 -67 5 l-29 15 33 0 c46 0 40
16 -13 31 -25 7 -45 17 -45 22 0 15 -95 48 -156 54 -41 4 -79 1 -111 -9 -58
-17 -238 -17 -255 0 -16 16 -74 15 -90 -2 -8 -7 -24 -17 -37 -21 -14 -4 -20
-12 -17 -21 4 -10 -4 -14 -29 -14 -19 0 -35 -4 -35 -8 0 -5 -11 -14 -24 -20
-19 -8 -26 -8 -30 1 -3 9 -5 9 -5 0 -1 -7 -7 -13 -15 -13 -8 0 -13 7 -12 16 2
25 -17 27 -42 5 -19 -16 -34 -18 -110 -14 -88 5 -112 14 -112 39 0 8 -4 14 -9
14 -5 0 -12 16 -15 35 -4 21 -11 32 -19 29 -7 -2 -20 8 -29 24 -16 27 -18 45
-17 217 1 31 -5 45 -28 65 -42 38 -54 72 -38 101 15 26 21 40 37 82 6 15 14
27 19 27 5 0 9 6 10 13 1 28 67 103 106 122 87 42 66 45 -287 45 -305 0 -354
-4 -320 -25 6 -4 22 -25 36 -46 17 -27 40 -46 70 -59 24 -11 47 -19 51 -19 3
0 9 -3 12 -8 10 -14 70 -53 81 -53 5 0 10 -4 10 -9 0 -5 7 -17 16 -25 11 -11
12 -16 3 -16 -7 0 0 -14 17 -31 17 -19 24 -33 18 -36 -7 -2 -10 -13 -7 -24 6
-22 -24 -51 -44 -44 -7 2 -17 -4 -23 -14 -8 -17 -15 -18 -52 -9 -23 5 -78 11
-121 13 -55 3 -96 12 -131 28 -33 15 -59 21 -71 17 -11 -4 -34 -11 -52 -14
-30 -7 -34 -5 -62 40 -22 36 -27 53 -20 65 6 12 5 20 -1 24 -6 4 -10 23 -9 43
1 21 -8 54 -19 76 -12 21 -24 58 -28 82 l-6 44 -157 -1 -156 0 -30 -30z m6148
-434 c3 -17 -9 -54 -35 -108 -22 -45 -44 -91 -48 -102 -4 -11 -28 -45 -52 -75
-25 -30 -53 -70 -62 -88 -10 -19 -20 -31 -23 -29 -11 12 -33 173 -27 201 13
66 47 121 101 165 46 38 69 48 134 60 4 0 9 -10 12 -24z m-5652 -106 c16 -11
29 -27 29 -34 0 -8 9 -17 20 -20 13 -4 20 -15 20 -30 0 -13 11 -37 25 -53 13
-16 22 -32 18 -36 -3 -3 11 -6 33 -6 70 0 68 5 67 -229 -2 -185 -4 -214 -21
-248 -13 -25 -18 -51 -14 -76 5 -46 -6 -127 -18 -127 -5 0 -30 21 -55 46 -35
35 -43 49 -35 59 11 14 4 36 -30 92 -26 44 -29 179 -7 393 2 22 -2 25 -42 31
-41 5 -71 28 -71 54 0 5 -9 16 -20 23 -15 9 -20 23 -20 52 0 22 5 40 10 40 6
0 10 11 10 24 0 16 11 31 33 45 39 25 33 25 68 0z m4919 -680 c22 -12 40 -25
40 -29 0 -4 19 -36 42 -70 34 -52 41 -70 40 -109 -1 -25 6 -75 15 -111 22 -91
9 -137 -54 -185 -26 -20 -57 -38 -70 -41 -29 -8 -74 10 -103 41 -20 21 -22 32
-17 73 3 27 17 65 30 85 16 24 26 57 31 101 7 69 5 86 -21 178 -25 89 -8 106
67 67z m-5916 -1234 c4 -14 11 -25 16 -25 6 0 10 -25 10 -55 0 -42 8 -72 32
-123 18 -37 37 -71 41 -77 5 -5 17 -25 27 -42 23 -38 36 -40 113 -13 44 16 81
20 169 20 148 -1 193 -10 231 -48 29 -30 30 -34 30 -111 -2 -126 -51 -191
-147 -191 -32 0 -137 32 -161 50 -5 4 -21 10 -34 13 -17 4 -24 1 -28 -14 -4
-14 -14 -19 -42 -19 -24 0 -45 -8 -60 -21 -25 -24 -20 -33 24 -43 22 -5 26 -4
15 4 -13 8 -13 10 0 10 9 0 21 -5 26 -10 11 -11 140 -32 185 -31 15 1 31 -5
36 -11 18 -23 24 -69 14 -102 -5 -17 -12 -47 -15 -67 -4 -19 -15 -45 -26 -56
-24 -26 -112 -40 -154 -24 -21 9 -32 8 -42 0 -8 -6 -14 -7 -14 -2 0 5 -18 16
-40 23 -36 12 -42 11 -60 -5 -11 -10 -20 -24 -20 -32 0 -22 -30 -14 -39 11 -5
13 -16 26 -23 28 -7 3 -14 18 -16 34 -1 15 -7 33 -12 38 -6 6 -10 18 -10 28 0
10 -7 18 -16 18 -20 0 -43 28 -44 54 0 30 44 117 57 111 13 -4 33 24 33 47 0
8 -13 27 -28 44 -33 34 -62 79 -62 94 0 12 -41 73 -52 78 -5 2 -8 11 -8 20 0
8 -9 43 -19 76 -43 138 -54 202 -41 243 26 83 138 140 154 78z m6688 -235 c2
-6 31 -15 66 -20 34 -5 75 -18 91 -29 16 -12 34 -21 40 -21 22 0 81 -63 90
-96 19 -68 -27 -136 -97 -148 -39 -6 -106 17 -139 48 -105 102 -113 112 -114
141 0 16 -1 47 -3 68 -2 24 3 44 11 53 17 16 50 19 55 4z m-2581 -64 c37 -32
49 -58 48 -103 -1 -37 -1 -37 -11 -10 -11 30 -38 36 -58 12 -7 -8 -17 -15 -23
-15 -5 0 -15 -7 -21 -16 -9 -12 -17 -13 -39 -5 -40 15 -35 49 13 96 22 21 40
45 40 52 0 20 22 15 51 -11z m-2992 -30 c43 -39 81 -177 81 -294 0 -58 4 -77
23 -106 32 -46 91 -211 83 -231 -3 -9 -2 -13 4 -10 6 3 10 0 10 -8 0 -8 8 -23
18 -35 16 -18 26 -20 83 -16 l64 5 14 -46 c7 -25 17 -45 21 -45 5 0 8 -8 8
-17 -1 -10 2 -42 6 -70 7 -45 5 -53 -8 -53 -8 0 -24 -10 -36 -22 -20 -21 -21
-21 -73 -5 -66 21 -88 21 -113 2 -25 -19 -68 -19 -84 0 -14 17 -57 20 -95 5
-20 -8 -42 -5 -93 11 -74 24 -102 46 -102 82 0 14 -7 30 -15 37 -8 7 -15 25
-15 41 0 16 -4 29 -8 29 -9 0 -47 114 -57 172 -7 39 27 166 49 180 7 5 -1 17
-22 34 -52 42 -62 70 -62 188 0 99 1 106 27 137 41 49 75 60 179 57 75 -3 96
-7 113 -22z m3888 -607 c44 -16 80 -57 93 -104 10 -35 18 -45 39 -50 15 -3 49
-23 77 -44 27 -20 73 -46 100 -56 42 -15 55 -26 75 -61 28 -53 45 -56 53 -10
12 63 70 108 143 108 47 0 83 -22 83 -52 0 -9 5 -21 10 -26 15 -15 15 -77 1
-112 -19 -46 -78 -82 -133 -82 -47 0 -57 7 -95 66 -11 18 -14 16 -47 -18 -31
-34 -40 -38 -85 -38 -38 0 -56 6 -79 25 -25 21 -40 25 -94 25 -69 0 -117 12
-158 40 -14 10 -39 21 -56 24 -17 4 -42 18 -54 32 -13 13 -31 24 -41 24 -37 0
-69 24 -90 69 -28 60 -34 110 -19 155 12 37 16 40 105 77 11 5 45 10 75 12 30
2 58 4 62 5 4 1 19 -3 35 -9z m-118 -698 c25 -16 23 -66 -4 -105 -14 -20 -25
-50 -25 -66 0 -24 -6 -33 -32 -43 -43 -18 -58 -12 -58 24 0 19 -5 29 -15 29
-20 0 -20 58 0 84 8 11 15 32 15 47 0 15 6 30 13 32 21 9 91 7 106 -2z m-339
-185 c30 -10 63 -21 72 -26 11 -6 18 -5 20 2 3 7 20 12 39 11 71 -1 95 -19 77
-57 -13 -31 -68 -49 -103 -36 -15 6 -36 5 -57 -2 -100 -33 -120 -43 -129 -60
-13 -25 -44 -63 -91 -111 -36 -37 -37 -38 -66 -23 -43 22 -56 97 -30 175 33
104 42 122 69 138 16 10 29 21 29 26 0 4 3 6 8 4 4 -3 16 -1 27 3 12 4 31 0
50 -10 16 -10 55 -25 85 -34z m1741 -282 c17 -8 44 -30 60 -47 20 -21 32 -28
36 -19 7 18 23 4 23 -21 0 -12 -13 -35 -30 -50 -16 -16 -30 -32 -30 -37 0 -15
-84 -41 -118 -37 -35 4 -71 32 -92 72 -12 22 -11 28 10 50 13 14 20 25 16 25
-14 0 27 58 48 69 30 14 43 13 77 -5z m-29 -718 c9 -7 28 -47 42 -88 32 -94
35 -199 9 -249 -23 -42 -45 -64 -60 -63 -7 1 -19 2 -27 3 -8 0 -28 29 -45 63
-41 82 -41 174 0 288 6 19 13 41 15 48 4 16 44 15 66 -2z m-688 -35 c10 -11
29 -22 44 -26 39 -10 51 -34 51 -100 -1 -110 -59 -163 -95 -88 -12 23 -25 37
-35 35 -21 -3 -57 37 -59 68 -4 53 1 78 21 104 24 31 49 33 73 7z m-4566
-1416 c12 -20 34 -41 47 -47 20 -9 23 -16 18 -39 -3 -17 -1 -29 5 -29 6 0 10
-28 10 -69 -1 -58 -3 -68 -17 -64 -14 4 -19 -12 -30 -108 -7 -62 -23 -144 -36
-183 -31 -95 -31 -94 -24 -92 4 0 15 -6 25 -15 29 -25 95 -53 121 -51 29 2 30
-16 3 -93 -11 -32 -20 -67 -20 -77 0 -34 -43 -18 -62 24 -10 20 -27 39 -38 43
-14 4 -20 15 -20 33 0 15 -3 46 -7 69 -8 41 -8 41 -29 24 -12 -10 -25 -35 -28
-57 -9 -52 -26 -80 -26 -43 0 15 -7 32 -15 39 -13 11 -15 8 -15 -19 0 -18 4
-40 9 -49 5 -9 6 -25 2 -34 -5 -14 -8 -15 -25 -3 -16 12 -18 22 -12 72 8 65 8
70 4 98 -2 16 2 19 25 17 32 -3 34 1 7 28 -15 15 -18 27 -13 52 3 18 10 38 15
45 5 6 13 73 18 150 9 132 36 374 45 401 8 23 40 12 63 -23z m-318 -55 c32
-72 38 -126 15 -156 -8 -10 -15 -26 -15 -35 0 -9 -7 -19 -15 -23 -8 -3 -15
-15 -15 -26 0 -38 -17 -58 -45 -52 -14 2 -24 7 -21 9 7 7 -20 33 -34 33 -7 0
-7 -7 2 -22 7 -13 11 -26 10 -30 -1 -5 5 -8 13 -8 24 0 29 -27 11 -55 -9 -13
-16 -35 -16 -49 0 -26 -18 -45 -29 -30 -3 5 -24 9 -46 9 -31 0 -40 4 -39 16 1
12 -4 15 -18 11 -18 -4 -19 -2 -9 16 15 28 31 37 31 18 0 -9 8 -16 19 -16 29
0 15 49 -19 64 -29 12 -29 27 1 57 11 11 19 28 19 38 0 11 5 23 10 26 6 3 10
15 10 26 0 11 7 22 15 25 8 4 15 16 15 29 0 13 13 37 29 54 15 16 31 43 34 58
11 54 27 85 43 81 8 -2 28 -32 44 -68z m-802 -43 c12 -24 19 -27 60 -27 47 0
110 13 147 30 33 16 130 27 151 18 19 -9 44 -51 44 -75 0 -7 -11 -15 -25 -19
-14 -3 -25 -9 -25 -13 0 -4 -27 -13 -60 -19 l-61 -13 1 -37 c0 -20 -4 -73 -10
-117 -22 -179 -24 -190 -46 -199 -12 -6 -30 -33 -44 -70 -27 -70 -58 -116 -77
-116 -7 0 -18 12 -24 28 -6 15 -19 43 -28 62 -9 19 -15 49 -15 65 1 17 2 50 3
75 1 42 2 44 14 21 16 -32 33 -37 46 -12 8 13 8 28 1 46 -15 38 -12 48 10 42
24 -6 50 31 50 73 0 34 -4 35 -40 15 -31 -18 -79 -19 -134 -3 -66 19 -76 32
-76 104 0 35 4 65 9 68 5 3 12 22 15 42 6 27 14 39 39 49 43 19 59 15 75 -18z
m-577 -3442 c7 -104 13 -221 13 -260 -1 -141 -31 -205 -46 -99 -4 27 -16 78
-28 114 -21 65 -66 248 -76 305 -5 27 1 38 52 88 32 31 62 53 65 49 4 -4 13
-92 20 -197z"/>
<path d="M3380 10622 c-19 -9 -39 -22 -43 -29 -4 -7 -17 -13 -28 -13 -11 0
-23 -8 -26 -17 -4 -10 -11 -21 -17 -25 -7 -5 -7 -8 2 -8 6 0 12 -8 12 -18 0
-20 34 -55 63 -65 9 -4 17 -12 17 -19 1 -7 12 -22 27 -33 14 -11 40 -32 58
-47 56 -48 96 -32 98 39 2 68 -6 143 -15 143 -5 0 -14 14 -19 30 -6 17 -15 30
-20 30 -5 0 -9 6 -9 14 0 30 -55 40 -100 18z"/>
<path d="M4863 6158 c-4 -7 -8 -123 -9 -258 0 -135 -3 -251 -7 -257 -4 -6 -16
-69 -27 -140 -19 -126 -24 -255 -11 -301 6 -22 9 -20 64 35 60 61 97 108 122
158 16 30 16 30 9 -21 -7 -66 14 -115 47 -107 14 4 20 1 19 -8 -6 -38 1 -69
15 -69 8 0 17 -11 21 -25 3 -14 21 -44 40 -67 31 -40 34 -48 34 -116 0 -40
-12 -139 -27 -220 -25 -134 -28 -178 -24 -282 1 -19 -1 -57 -4 -85 -5 -37 -4
-46 4 -35 7 9 11 10 11 3 0 -6 -5 -15 -10 -18 -8 -5 -7 -11 1 -21 8 -10 8 -18
0 -27 -28 -35 -44 -155 -49 -362 -5 -262 11 -392 54 -430 14 -12 31 -86 41
-180 4 -38 8 -72 8 -75 1 -3 5 -18 9 -35 4 -16 15 -46 24 -65 9 -19 18 -42 19
-50 10 -62 45 -196 53 -204 6 -6 10 -18 10 -28 0 -10 4 -18 9 -18 5 0 11 -15
15 -32 10 -55 17 -572 7 -586 -6 -11 -26 -11 -97 -4 -116 13 -334 4 -334 -13
0 -21 25 -25 138 -25 101 0 269 -15 302 -26 13 -5 13 -7 0 -17 -8 -7 -16 -19
-18 -26 -16 -71 -16 -71 9 -69 19 3 23 -1 21 -19 -2 -12 1 -24 6 -27 13 -8 3
-142 -14 -191 -7 -22 -12 -58 -11 -80 2 -22 -3 -51 -10 -65 -7 -14 -13 -35
-13 -47 0 -12 -7 -28 -15 -37 -17 -16 -21 -41 -5 -31 6 4 10 -8 10 -29 0 -21
-5 -36 -12 -36 -6 0 -4 -7 5 -18 24 -26 56 -156 57 -225 0 -32 4 -66 9 -75 5
-9 10 -42 12 -72 2 -30 7 -60 11 -66 15 -20 22 -160 9 -168 -8 -5 -9 -12 -3
-19 5 -7 14 -53 21 -102 16 -133 -2 -352 -34 -420 -14 -27 -29 -68 -34 -90 -5
-22 -13 -50 -16 -62 l-7 -23 582 0 582 0 -7 28 c-4 15 -13 74 -20 132 -8 58
-21 150 -29 205 -8 55 -17 120 -20 145 -3 25 -10 69 -16 99 -5 30 -17 102 -26
160 -8 58 -25 149 -36 201 -11 52 -23 118 -28 145 -10 53 -24 119 -60 275 -27
113 -35 148 -48 215 -9 42 -30 113 -92 305 -4 14 -29 75 -54 135 -26 61 -69
169 -96 240 -27 72 -64 157 -81 190 -17 33 -75 146 -128 250 -54 105 -112 216
-130 248 -58 104 -198 303 -254 362 -22 22 -58 81 -82 130 -42 88 -43 93 -49
218 -4 71 -11 137 -16 147 -5 10 -7 32 -4 49 4 21 1 39 -10 56 -12 19 -14 30
-6 44 13 25 13 78 0 86 -8 5 -8 11 0 19 5 7 7 27 4 44 -7 35 2 82 15 82 5 0
13 -17 18 -37 10 -44 29 -46 25 -3 -2 22 1 30 13 30 19 0 64 -46 76 -77 12
-31 32 -29 112 11 38 19 75 32 82 30 8 -3 21 -30 30 -61 l16 -54 34 29 c18 17
48 33 67 37 48 11 128 53 135 72 10 25 -24 288 -45 346 -9 28 -30 64 -46 81
l-28 31 5 -39 c8 -52 -13 -100 -49 -114 -56 -21 -109 -36 -121 -34 -6 1 -20
-9 -31 -23 -20 -25 -37 -30 -65 -19 -13 4 -13 11 -1 49 11 39 11 44 -4 48 -18
4 -14 7 35 23 27 8 -5 24 -37 17 -25 -4 -27 -2 -27 29 0 18 2 27 5 21 2 -7 11
-13 20 -12 11 0 12 2 5 6 -7 2 -13 11 -13 19 0 30 30 11 71 -46 37 -50 46 -57
58 -46 7 8 14 26 14 40 0 14 4 26 9 26 6 0 7 7 4 15 -3 9 1 18 9 21 22 9 18
23 -15 51 -18 15 -30 34 -30 50 0 13 -5 33 -10 44 -11 19 -10 20 30 23 8 1 18
-5 22 -14 4 -9 7 0 7 21 1 34 -1 36 -26 32 -73 -11 -73 -11 -73 -53 0 -21 -5
-42 -11 -46 -8 -4 -9 13 -4 61 5 46 3 79 -6 107 -12 37 -11 42 5 54 17 12 22
9 48 -32 37 -59 47 -51 15 12 -22 45 -36 72 -97 189 -12 22 -14 31 -6 20 9
-11 20 -25 26 -32 5 -7 10 -17 10 -23 0 -5 5 -10 10 -10 6 0 10 -7 10 -15 0
-9 9 -25 20 -37 15 -16 20 -18 20 -7 0 8 -4 19 -9 24 -10 11 -49 82 -115 209
-60 115 -67 127 -98 170 -15 21 -28 46 -28 55 -1 9 -10 27 -21 40 -15 18 -23
21 -31 13 -8 -8 -17 -3 -35 20 -13 18 -23 39 -23 49 0 9 -8 27 -18 40 -10 13
-33 53 -51 89 -18 36 -47 79 -65 96 -17 17 -40 49 -51 70 -18 35 -96 124 -109
124 -2 0 -8 -6 -13 -12z"/>
<path d="M9050 5070 c-14 -19 -24 -20 -174 -19 -133 0 -161 -2 -175 -16 -11
-10 -12 -18 -5 -23 5 -4 16 -23 24 -42 35 -90 107 -170 151 -170 15 0 30 -4
34 -10 3 -5 12 -7 20 -4 19 8 72 -33 84 -65 6 -14 13 -66 16 -116 9 -122 5
-127 -110 -134 l-88 -6 -38 -45 c-22 -25 -39 -49 -39 -54 0 -6 -9 -19 -20 -31
-26 -28 -90 -134 -90 -150 0 -8 30 -12 103 -14 56 -1 120 -7 142 -12 53 -15
161 -17 175 -3 7 7 9 157 8 473 -3 411 -5 460 -18 441z"/>
<path d="M8249 4930 c-8 -4 -33 -11 -56 -15 -35 -5 -43 -11 -43 -28 0 -18 -2
-19 -10 -7 -9 14 -15 7 -11 -14 1 -5 -5 -4 -13 4 -13 10 -16 10 -16 -4 0 -10
-4 -15 -8 -12 -4 2 -14 1 -22 -4 -11 -7 -8 -11 15 -20 17 -7 41 -14 54 -16 13
-3 26 -6 30 -7 3 0 15 4 27 10 11 7 55 15 97 19 65 6 79 10 92 30 18 27 20 54
4 54 -6 0 -9 -6 -6 -14 4 -10 -2 -13 -23 -12 -36 3 -49 14 -30 26 8 6 11 10 5
10 -5 1 -24 3 -41 4 -17 2 -37 0 -45 -4z"/>
<path d="M5853 4737 c20 -19 37 -44 37 -56 0 -12 4 -29 10 -39 5 -9 17 -39 25
-67 15 -45 15 -50 0 -61 -18 -13 -31 -98 -21 -137 3 -14 15 -27 27 -30 27 -7
15 -27 -17 -27 -34 0 -40 -24 -15 -66 24 -39 53 -142 70 -247 7 -37 22 -98 35
-135 13 -37 33 -101 45 -142 12 -41 26 -89 31 -106 6 -17 10 -37 10 -46 0 -37
67 -60 94 -33 14 14 14 19 2 38 -8 12 -19 65 -25 117 -13 108 -43 280 -53 295
-3 6 -13 66 -23 135 -9 69 -23 166 -31 217 -8 56 -11 120 -8 166 l7 74 -45 26
c-32 18 -52 40 -66 69 -25 54 -49 76 -93 84 l-34 7 38 -36z"/>
<path d="M6602 4495 c-7 -16 -18 -52 -24 -80 -5 -27 -19 -77 -29 -109 -10 -33
-19 -71 -19 -85 l1 -26 13 30 c19 45 30 13 16 -46 -7 -28 -11 -52 -9 -54 2 -2
21 -6 42 -10 46 -9 51 11 7 28 -30 11 -37 30 -21 55 6 10 10 10 21 -3 27 -32
41 -5 19 36 -8 16 -13 18 -25 8 -22 -18 -18 26 6 77 17 34 20 58 18 126 -3 78
-4 81 -16 53z"/>
<path d="M6214 4307 c3 -79 12 -191 21 -247 8 -57 15 -108 15 -113 0 -5 7 -7
15 -3 9 3 15 0 15 -10 0 -8 -5 -12 -11 -8 -6 3 1 -12 15 -35 26 -41 34 -85 17
-96 -6 -3 -8 -22 -7 -43 14 -151 25 -243 34 -277 6 -22 15 -64 21 -94 10 -49
57 -140 72 -141 3 0 9 64 13 143 10 184 14 236 20 262 7 26 7 294 1 345 -2 19
-4 75 -5 124 -2 102 -13 132 -66 172 -19 15 -41 39 -49 54 -19 38 -86 104
-108 108 -16 3 -17 -7 -13 -141z"/>
<path d="M6786 4116 c-9 -30 -21 -58 -26 -61 -6 -3 -10 -15 -10 -25 0 -10 -9
-34 -19 -52 -21 -35 -51 -116 -96 -263 -16 -49 -36 -111 -47 -137 -10 -26 -18
-62 -18 -80 0 -18 -21 -82 -46 -143 -25 -60 -54 -132 -65 -158 -11 -27 -25
-94 -31 -150 -11 -100 -10 -103 15 -160 26 -56 28 -57 68 -57 37 0 46 -6 90
-52 51 -55 75 -110 86 -200 4 -33 2 -48 -6 -48 -6 0 -11 18 -11 43 -2 107 -68
192 -111 141 -17 -21 -245 -174 -259 -174 -5 0 -10 -4 -10 -10 0 -5 -6 -10
-14 -10 -8 0 -16 -4 -18 -8 -9 -22 -147 -103 -195 -113 -58 -13 -58 -14 -41
-70 8 -27 17 -39 30 -39 10 0 18 5 18 10 0 6 13 10 28 10 16 0 37 9 47 20 10
11 27 20 37 20 21 0 41 16 51 42 9 25 51 49 92 53 l36 3 -3 -40 c-2 -26 2 -43
10 -45 7 -3 12 4 12 16 0 12 4 21 9 21 13 0 23 -91 10 -106 -13 -16 -30 -172
-35 -314 -10 -318 -13 -368 -22 -405 -5 -22 -15 -85 -22 -141 -11 -87 -11
-106 3 -145 15 -43 15 -43 16 -12 1 31 2 32 39 26 37 -6 37 -6 16 13 -26 23
-38 74 -18 74 10 0 14 14 14 46 0 41 1 44 16 30 8 -9 19 -16 23 -16 4 0 13 37
19 83 6 45 14 91 16 102 3 11 5 28 5 38 1 11 6 15 13 11 8 -5 9 0 5 15 -3 12
1 27 9 36 9 9 15 35 16 65 0 27 4 53 9 56 5 3 9 14 9 24 0 10 6 20 13 23 6 2
13 21 13 43 3 84 17 161 36 194 29 50 60 147 64 200 5 78 15 112 30 106 9 -3
16 3 19 17 27 125 32 167 24 212 -3 16 1 19 17 17 19 -3 22 4 28 52 4 30 14
60 21 66 8 6 14 24 13 38 -1 60 15 228 24 239 5 6 13 67 18 135 5 68 14 150
20 183 14 74 6 596 -10 672 -10 45 -37 93 -53 93 -3 0 -13 -25 -21 -54z"/>
<path d="M6520 4082 c0 -16 9 -37 19 -46 10 -10 21 -26 24 -37 5 -17 3 -18
-16 -4 -12 8 -25 15 -29 15 -15 0 -8 -27 12 -45 11 -10 19 -30 19 -44 -1 -17
-3 -20 -6 -8 -6 25 -28 21 -29 -5 -1 -13 -6 -45 -12 -73 -5 -27 -13 -89 -17
-137 -6 -77 -5 -89 10 -94 35 -14 42 18 29 139 -5 49 -3 61 12 71 9 7 26 11
36 8 14 -3 18 1 18 24 0 15 7 35 15 44 10 11 16 39 18 76 1 67 -10 98 -25 70
-9 -15 -12 -14 -34 11 -13 15 -24 36 -24 46 0 9 -4 17 -10 17 -5 0 -10 -13
-10 -28z"/>
<path d="M5860 3156 c0 -8 21 -37 46 -65 40 -44 51 -51 84 -51 21 0 45 -7 54
-15 8 -8 23 -15 33 -15 10 -1 35 -7 56 -14 31 -12 37 -12 37 0 0 8 -12 25 -27
38 -105 92 -171 141 -179 134 -2 -3 7 -15 21 -28 23 -22 35 -70 17 -70 -4 0
-26 18 -48 39 -45 45 -94 69 -94 47z"/>
<path d="M2547 2863 c-8 -15 -20 -78 -25 -140 -7 -62 -21 -138 -32 -170 -12
-32 -27 -83 -35 -113 -14 -62 -64 -210 -75 -225 -4 -5 -17 -53 -30 -105 -69
-294 -82 -350 -91 -395 -6 -27 -21 -84 -35 -125 -38 -120 -65 -231 -69 -285
-2 -27 -6 -81 -8 -120 -3 -38 -15 -106 -27 -150 -15 -56 -22 -118 -25 -206 -2
-70 -8 -135 -13 -145 -5 -11 -13 -43 -17 -72 -5 -35 -13 -57 -27 -66 l-20 -15
21 -29 c27 -38 27 -50 -1 -54 -20 -3 -23 -8 -20 -41 2 -20 -1 -37 -6 -37 -6 0
-13 -30 -16 -67 -2 -38 -8 -87 -11 -110 l-7 -43 53 0 c30 0 50 4 44 8 -5 4
-10 34 -10 67 0 47 3 60 15 60 21 0 24 43 7 93 -11 32 -12 42 -2 42 6 0 17 12
23 26 7 14 17 22 22 19 6 -3 10 1 10 10 0 9 -4 13 -10 10 -6 -4 -10 11 -10 37
1 38 2 41 14 26 17 -23 26 -13 26 28 0 18 4 44 10 58 13 34 37 178 50 299 6
54 18 117 26 140 8 23 28 110 45 192 17 83 38 182 48 220 10 39 28 142 40 230
12 88 31 202 42 253 10 51 19 108 19 127 0 18 4 45 9 58 5 13 14 82 20 152 12
133 26 205 40 205 9 0 18 55 27 165 4 39 12 102 19 140 7 39 12 72 10 73 -2 2
-10 -9 -18 -25z"/>
<path d="M2923 2864 c-18 -8 -46 -32 -62 -54 -61 -84 -46 -190 37 -255 46 -36
49 -37 118 -33 61 3 75 7 110 35 82 64 88 214 13 277 -50 42 -155 57 -216 30z
m157 -61 c40 -27 49 -45 50 -91 0 -57 -21 -96 -64 -116 -90 -43 -175 2 -176
94 0 52 28 106 63 120 37 15 101 11 127 -7z"/>
<path d="M2626 2443 c-3 -3 -6 -14 -6 -24 0 -13 10 -19 43 -23 23 -2 103 -12
177 -21 147 -17 501 -47 507 -42 8 9 -281 51 -452 67 -67 6 -141 17 -165 24
-75 22 -97 26 -104 19z"/>
<path d="M2596 2275 c-4 -22 -2 -44 8 -62 13 -27 19 -59 17 -95 -1 -10 -15
-33 -32 -52 -36 -41 -51 -106 -25 -106 54 0 129 80 141 151 10 57 -11 131 -47
168 -39 40 -54 39 -62 -4z"/>
<path d="M2845 2255 c-2 -5 -8 -46 -14 -90 -19 -143 -30 -212 -36 -228 -8 -20
13 -26 117 -37 94 -9 106 -6 114 26 8 32 -2 44 -39 44 -18 0 -49 3 -70 7 -35
5 -38 8 -35 37 l3 31 72 -2 72 -2 6 29 c4 16 4 34 1 39 -4 5 -36 13 -72 16
l-65 7 3 32 c3 27 7 31 33 31 17 -1 51 -4 76 -8 46 -8 46 -8 53 24 3 18 3 36
-1 40 -13 12 -215 16 -218 4z"/>
<path d="M8685 2237 c-17 -6 -40 -22 -52 -34 -12 -12 -41 -27 -65 -34 -51 -15
-78 -35 -78 -59 0 -20 41 -34 70 -25 16 5 98 -8 227 -36 28 -7 58 -9 66 -6 20
8 59 92 55 119 -2 13 -21 34 -47 52 -51 34 -126 44 -176 23z"/>
<path d="M6234 2029 c-3 -6 -8 -76 -11 -155 l-4 -144 40 0 c23 0 44 -1 48 -2
12 -5 23 55 13 71 -5 9 -10 11 -10 4 0 -17 -42 -7 -58 14 -23 32 -11 48 36 45
42 -4 42 -3 42 31 0 22 -6 37 -15 41 -8 3 -15 18 -15 33 0 16 -10 37 -24 51
-27 25 -32 26 -42 11z"/>
<path d="M6377 1143 c-18 -5 -18 -35 4 -178 5 -33 9 -63 9 -67 0 -5 41 -8 90
-8 70 0 90 3 90 14 0 16 -69 46 -108 46 -15 0 -33 4 -41 9 -11 7 -10 11 7 20
11 6 32 11 46 11 31 0 119 22 211 54 93 31 170 53 223 61 44 7 48 11 33 34
-10 15 -74 12 -244 -11 -77 -10 -96 -10 -152 5 -60 16 -129 20 -168 10z"/>
<path d="M6400 823 c0 -38 3 -42 34 -53 19 -6 51 -8 70 -4 57 10 119 -4 175
-41 34 -23 65 -35 87 -35 32 0 34 2 34 33 0 61 -9 76 -49 83 -20 3 -49 11 -66
19 -67 28 -104 36 -193 38 l-92 2 0 -42z"/>
</g>
</svg>
